<svg width="100%" viewBox="0 0 680 234" role="img" xmlns="http://www.w3.org/2000/svg" style="">
<title style="fill:rgb(0, 0, 0);stroke:none;color:rgb(255, 255, 255);stroke-width:1px;stroke-linecap:butt;stroke-linejoin:miter;opacity:1;font-family:&quot;Anthropic Sans&quot;, -apple-system, &quot;system-ui&quot;, &quot;Segoe UI&quot;, sans-serif;font-size:16px;font-weight:400;text-anchor:start;dominant-baseline:auto">Side view of a coiled shell showing translation, distance from axis, and aperture shape</title>
<desc style="fill:rgb(0, 0, 0);stroke:none;color:rgb(255, 255, 255);stroke-width:1px;stroke-linecap:butt;stroke-linejoin:miter;opacity:1;font-family:&quot;Anthropic Sans&quot;, -apple-system, &quot;system-ui&quot;, &quot;Segoe UI&quot;, sans-serif;font-size:16px;font-weight:400;text-anchor:start;dominant-baseline:auto">A side profile of a shell built from the same logarithmic spiral, annotated with T the translation rate setting the spire height, D the horizontal distance of the coil from the axis, and S the shape of the generating curve at the aperture.</desc>
<defs>

<marker id="ar3" viewBox="0 0 10 10" refX="8" refY="5" markerWidth="6" markerHeight="6" orient="auto-start-reverse"><path d="M2 1L8 5L2 9" fill="none" stroke="context-stroke" stroke-width="1.6" stroke-linecap="round" stroke-linejoin="round"/></marker>
<mask id="imagine-text-gaps-ix9zvx" maskUnits="userSpaceOnUse"><rect x="0" y="0" width="680" height="234" fill="white"/><rect x="36" y="6" width="184.5546875" height="43.5" fill="black" rx="2"/><rect x="85.578125" y="92.5" width="186.421875" height="37.5" fill="black" rx="2"/><rect x="115.671875" y="118" width="160.349609375" height="32.5" fill="black" rx="2"/><rect x="99.515625" y="138" width="172.484375" height="32.5" fill="black" rx="2"/><rect x="452" y="49" width="178.1953125" height="32.5" fill="black" rx="2"/><rect x="452" y="74.5" width="140.12158203125" height="37.5" fill="black" rx="2"/><rect x="452" y="98" width="152.9404296875" height="32.5" fill="black" rx="2"/><rect x="452" y="120.5" width="148.7265625" height="37.5" fill="black" rx="2"/><rect x="450.55859375" y="144" width="210.71484375" height="32.5" fill="black" rx="2"/><rect x="193.7421875" y="182.5" width="212.53466796875" height="37.5" fill="black" rx="2"/></mask></defs>

<text x="40" y="36" text-anchor="start" style="fill:rgb(194, 192, 182);stroke:none;color:rgb(255, 255, 255);stroke-width:1px;stroke-linecap:butt;stroke-linejoin:miter;opacity:1;font-family:Caveat, cursive;font-size:25px;font-weight:400;text-anchor:start;dominant-baseline:auto">z(θ) = z₀ · W<tspan dy="-9" font-size="16" style="fill:rgb(194, 192, 182);stroke:none;color:rgb(255, 255, 255);stroke-width:1px;stroke-linecap:butt;stroke-linejoin:miter;opacity:1;font-family:Caveat, cursive;font-size:16px;font-weight:400;text-anchor:start;dominant-baseline:auto">θ ⁄ 2π</tspan></text>

<line x1="330" y1="58" x2="330" y2="200" stroke="var(--color-text-secondary)" stroke-width="0.9" stroke-dasharray="5 4" mask="url(#imagine-text-gaps-ix9zvx)" style="fill:rgb(0, 0, 0);stroke:rgb(194, 192, 182);color:rgb(255, 255, 255);stroke-width:0.9px;stroke-dasharray:5px, 4px;stroke-linecap:butt;stroke-linejoin:miter;opacity:1;font-family:&quot;Anthropic Sans&quot;, -apple-system, &quot;system-ui&quot;, &quot;Segoe UI&quot;, sans-serif;font-size:16px;font-weight:400;text-anchor:start;dominant-baseline:auto"/>

<path stroke-width="2.4" d="M 339.0 70.0 L 339.0 70.8 L 338.9 71.6 L 338.7 72.4 L 338.4 73.2 L 338.0 73.6 L 337.4 74.4 L 336.8 75.1 L 336.0 75.8 L 335.1 76.4 L 334.1 77.0 L 333.0 77.5 L 331.9 78.0 L 330.7 78.3 L 329.5 78.6 L 328.3 78.9 L 327.1 79.0 L 325.9 79.1 L 324.7 79.0 L 323.4 78.9 L 322.2 78.7 L 321.1 78.4 L 320.0 77.8 L 319.2 77.1 L 319.0 76.8 L 318.8 76.0 L 318.8 75.3 L 319.1 75.2 L 319.6 74.6 L 320.2 74.2 L 321.0 73.8 L 321.9 73.5 L 322.9 73.3 L 324.1 73.1 L 325.3 73.0 L 326.7 72.9 L 327.8 73.0 L 329.2 73.1 L 330.7 73.4 L 332.2 73.7 L 333.7 74.2 L 335.2 74.7 L 336.6 75.4 L 338.0 76.1 L 339.3 77.0 L 340.4 77.9 L 341.4 78.9 L 342.3 80.0 L 343.0 81.1 L 343.6 82.6 L 343.8 83.5 L 344.0 84.8 L 344.0 85.7 L 343.8 86.7 L 343.6 87.6 L 343.2 88.6 L 342.7 89.5 L 342.1 90.4 L 341.4 91.3 L 340.6 92.1 L 339.7 92.9 L 338.7 93.7 L 337.6 94.4 L 336.5 95.1 L 335.3 95.7 L 334.0 96.3 L 332.7 96.8 L 331.3 97.2 L 329.9 97.5 L 328.5 97.8 L 327.1 98.1 L 325.7 98.2 L 324.3 98.3 L 322.9 98.4 L 321.6 98.3 L 320.3 98.2 L 319.1 98.0 L 318.0 97.8 L 317.0 97.5 L 316.0 97.2 L 315.1 96.8 L 314.2 96.2 L 313.6 95.8 L 313.1 95.3 L 312.8 94.7 L 312.6 94.0 L 312.6 93.5 L 312.7 93.1 L 313.0 92.4 L 313.5 91.9 L 314.0 91.3 L 314.7 90.9 L 315.6 90.4 L 316.6 90.0 L 317.6 89.7 L 318.9 89.4 L 320.2 89.1 L 321.6 89.0 L 323.1 88.9 L 324.6 88.9 L 326.3 88.9 L 327.4 89.0 L 329.1 89.2 L 330.9 89.5 L 332.6 89.8 L 334.4 90.3 L 336.1 90.9 L 337.8 91.5 L 339.5 92.2 L 341.1 93.1 L 342.7 94.0 L 344.1 94.9 L 345.5 96.0 L 346.8 97.1 L 348.3 98.7 L 349.5 100.0 L 350.5 102.2 L 351.2 104.1 L 351.6 106.0 L 351.7 108.0 L 351.5 109.5 L 351.2 110.9 L 350.7 112.4 L 350.1 113.9 L 349.2 115.3 L 348.2 116.6 L 347.0 118.0 L 345.7 119.3 L 344.2 120.5 L 342.6 121.6 L 340.9 122.7 L 339.1 123.7 L 337.1 124.6 L 335.1 125.4 L 333.0 126.1 L 330.9 126.7 L 328.7 127.3 L 326.5 127.7 L 324.3 128.0 L 322.2 128.2 L 320.0 128.2 L 318.0 128.2 L 316.0 128.1 L 314.0 127.9 L 312.2 127.6 L 310.5 127.2 L 309.0 126.7 L 307.6 126.1 L 306.4 125.5 L 305.3 124.8 L 304.4 124.1 L 303.8 123.3 L 303.3 122.5 L 303.1 121.7 L 303.0 120.8 L 303.2 120.0 L 303.6 119.1 L 304.3 118.3 L 305.1 117.5 L 306.2 116.8 L 307.5 116.1 L 308.9 115.4 L 310.6 114.9 L 312.4 114.4 L 314.5 114.0 L 316.6 113.7 L 318.9 113.6 L 321.3 113.5 L 323.9 113.6 L 326.5 113.8 L 329.1 114.1 L 331.8 114.6 L 334.6 115.2 L 337.3 115.9 L 340.0 116.8 L 342.6 117.8 L 345.2 119.0 L 347.7 120.3 L 350.1 121.7 L 352.3 123.2 L 354.4 124.9 L 356.3 126.7 L 358.1 128.5 L 359.6 130.5 L 360.9 132.6 L 361.9 134.7 L 362.7 136.9 L 363.3 139.1 L 363.6 141.3 L 363.6 143.6 L 363.3 145.9 L 362.8 148.2 L 362.0 150.5 L 361.3 151.9 L 360.0 154.1 L 359.0 155.6 L 357.3 157.7 L 356.1 159.0 L 354.0 161.0 L 352.4 162.3 L 350.0 164.1 L 348.2 165.2 L 345.5 166.8 L 343.5 167.8 L 340.5 169.2 L 338.4 170.0 L 335.2 171.1 L 333.0 171.8 L 329.6 172.7 L 327.4 173.2 L 324.0 173.8 L 321.7 174.1 L 318.4 174.4 L 316.1 174.5 L 312.9 174.6 L 310.7 174.5 L 307.7 174.3 L 305.7 174.1 L 302.8 173.6 L 301.1 173.3 L 298.6 172.6 L 297.0 172.0 L 294.9 171.2 L 293.0 170.2 L 291.4 169.1 L 290.2 167.9 L 289.2 166.7 L 288.5 165.4 L 288.2 164.1 L 288.2 162.8 L 288.6 161.5 L 289.3 160.2 L 290.3 158.9 L 291.7 157.7 L 293.4 156.6 L 295.5 155.5 L 297.8 154.5 L 300.4 153.7 L 303.3 153.0 L 306.5 152.4 L 309.9 152.0 L 313.5 151.8 L 317.3 151.8 L 321.2 151.9 L 325.3 152.3 L 329.4 152.8 L 333.7 153.6 L 337.9 154.5 L 342.1 155.7 L 346.3 157.1 L 350.4 158.8 L 354.3 160.6 L 358.2 162.6 L 361.8 164.9 L 365.2 167.3 L 368.4 169.9 L 371.3 172.7 L 374.0 175.6 L 376.2 178.7 L 378.2 181.9 L 379.7 185.2 L 380.9 188.6 L 381.7 192.0 L 381.9 193.2" mask="url(#imagine-text-gaps-ix9zvx)" style="fill:none;stroke:rgb(250, 249, 245);color:rgb(255, 255, 255);stroke-width:2.4px;stroke-linecap:round;stroke-linejoin:round;opacity:1;font-family:&quot;Anthropic Sans&quot;, -apple-system, &quot;system-ui&quot;, &quot;Segoe UI&quot;, sans-serif;font-size:16px;font-weight:400;text-anchor:start;dominant-baseline:auto"/>

<ellipse cx="378" cy="158" rx="11" ry="20" transform="rotate(34 378 158)" fill="none" stroke="#BA7517" stroke-width="2" style="fill:none;stroke:rgb(186, 117, 23);color:rgb(255, 255, 255);stroke-width:2px;stroke-linecap:butt;stroke-linejoin:miter;opacity:1;font-family:&quot;Anthropic Sans&quot;, -apple-system, &quot;system-ui&quot;, &quot;Segoe UI&quot;, sans-serif;font-size:16px;font-weight:400;text-anchor:start;dominant-baseline:auto"/>

<line x1="278" y1="72" x2="278" y2="191" stroke="#1D9E75" stroke-width="1.6" marker-start="url(#ar3)" marker-end="url(#ar3)" mask="url(#imagine-text-gaps-ix9zvx)" style="fill:rgb(0, 0, 0);stroke:rgb(29, 158, 117);color:rgb(255, 255, 255);stroke-width:1.6px;stroke-linecap:butt;stroke-linejoin:miter;opacity:1;font-family:&quot;Anthropic Sans&quot;, -apple-system, &quot;system-ui&quot;, &quot;Segoe UI&quot;, sans-serif;font-size:16px;font-weight:400;text-anchor:start;dominant-baseline:auto"/>
<line x1="274" y1="72" x2="282" y2="72" stroke="#1D9E75" stroke-width="1.2" style="fill:rgb(0, 0, 0);stroke:rgb(29, 158, 117);color:rgb(255, 255, 255);stroke-width:1.2px;stroke-linecap:butt;stroke-linejoin:miter;opacity:1;font-family:&quot;Anthropic Sans&quot;, -apple-system, &quot;system-ui&quot;, &quot;Segoe UI&quot;, sans-serif;font-size:16px;font-weight:400;text-anchor:start;dominant-baseline:auto"/>
<line x1="274" y1="191" x2="282" y2="191" stroke="#1D9E75" stroke-width="1.2" style="fill:rgb(0, 0, 0);stroke:rgb(29, 158, 117);color:rgb(255, 255, 255);stroke-width:1.2px;stroke-linecap:butt;stroke-linejoin:miter;opacity:1;font-family:&quot;Anthropic Sans&quot;, -apple-system, &quot;system-ui&quot;, &quot;Segoe UI&quot;, sans-serif;font-size:16px;font-weight:400;text-anchor:start;dominant-baseline:auto"/>
<text x="268" y="118" text-anchor="end" style="fill:rgb(194, 192, 182);stroke:none;color:rgb(255, 255, 255);stroke-width:1px;stroke-linecap:butt;stroke-linejoin:miter;opacity:1;font-family:Caveat, cursive;font-size:21px;font-weight:400;text-anchor:end;dominant-baseline:auto">T — translation rate</text>
<text x="268" y="140" text-anchor="end" style="fill:rgb(194, 192, 182);stroke:none;color:rgb(255, 255, 255);stroke-width:1px;stroke-linecap:butt;stroke-linejoin:miter;opacity:1;font-family:Caveat, cursive;font-size:18px;font-weight:400;text-anchor:end;dominant-baseline:auto">sets how fast the coil</text>
<text x="268" y="160" text-anchor="end" style="fill:rgb(194, 192, 182);stroke:none;color:rgb(255, 255, 255);stroke-width:1px;stroke-linecap:butt;stroke-linejoin:miter;opacity:1;font-family:Caveat, cursive;font-size:18px;font-weight:400;text-anchor:end;dominant-baseline:auto">descends (spire height)</text>

<line stroke="var(--color-text-secondary)" stroke-width="0.7" stroke-dasharray="3 3" x1="330" y1="80" x2="452" y2="66" style="fill:none;stroke:rgb(250, 249, 245);color:rgb(255, 255, 255);stroke-width:0.7px;stroke-dasharray:3px, 3px;stroke-linecap:round;stroke-linejoin:round;opacity:1;font-family:&quot;Anthropic Sans&quot;, -apple-system, &quot;system-ui&quot;, &quot;Segoe UI&quot;, sans-serif;font-size:16px;font-weight:400;text-anchor:start;dominant-baseline:auto"/>
<text x="456" y="71" style="fill:rgb(194, 192, 182);stroke:none;color:rgb(255, 255, 255);stroke-width:1px;stroke-linecap:butt;stroke-linejoin:miter;opacity:1;font-family:Caveat, cursive;font-size:18px;font-weight:400;text-anchor:start;dominant-baseline:auto">coiling axis (columella)</text>

<line stroke="#D85A30" stroke-width="0.7" stroke-dasharray="3 3" x1="358" y1="115" x2="452" y2="104" style="fill:none;stroke:rgb(250, 249, 245);color:rgb(255, 255, 255);stroke-width:0.7px;stroke-dasharray:3px, 3px;stroke-linecap:round;stroke-linejoin:round;opacity:1;font-family:&quot;Anthropic Sans&quot;, -apple-system, &quot;system-ui&quot;, &quot;Segoe UI&quot;, sans-serif;font-size:16px;font-weight:400;text-anchor:start;dominant-baseline:auto"/>
<text x="456" y="100" style="fill:rgb(194, 192, 182);stroke:none;color:rgb(255, 255, 255);stroke-width:1px;stroke-linecap:butt;stroke-linejoin:miter;opacity:1;font-family:Caveat, cursive;font-size:21px;font-weight:400;text-anchor:start;dominant-baseline:auto">W — each turn</text>
<text x="456" y="120" style="fill:rgb(194, 192, 182);stroke:none;color:rgb(255, 255, 255);stroke-width:1px;stroke-linecap:butt;stroke-linejoin:miter;opacity:1;font-family:Caveat, cursive;font-size:18px;font-weight:400;text-anchor:start;dominant-baseline:auto">the whorl grows ×W</text>

<line stroke="#BA7517" stroke-width="0.7" stroke-dasharray="3 3" x1="386" y1="160" x2="452" y2="150" mask="url(#imagine-text-gaps-ix9zvx)" style="fill:none;stroke:rgb(250, 249, 245);color:rgb(255, 255, 255);stroke-width:0.7px;stroke-dasharray:3px, 3px;stroke-linecap:round;stroke-linejoin:round;opacity:1;font-family:&quot;Anthropic Sans&quot;, -apple-system, &quot;system-ui&quot;, &quot;Segoe UI&quot;, sans-serif;font-size:16px;font-weight:400;text-anchor:start;dominant-baseline:auto"/>
<text x="456" y="146" style="fill:rgb(194, 192, 182);stroke:none;color:rgb(255, 255, 255);stroke-width:1px;stroke-linecap:butt;stroke-linejoin:miter;opacity:1;font-family:Caveat, cursive;font-size:21px;font-weight:400;text-anchor:start;dominant-baseline:auto">S — shape of the</text>
<text x="456" y="166" style="fill:rgb(194, 192, 182);stroke:none;color:rgb(255, 255, 255);stroke-width:1px;stroke-linecap:butt;stroke-linejoin:miter;opacity:1;font-family:Caveat, cursive;font-size:18px;font-weight:400;text-anchor:start;dominant-baseline:auto">generating curve (aperture)</text>

<line x1="297" y1="177" x2="297" y2="189" stroke="#7F77DD" stroke-width="1.1" style="fill:rgb(0, 0, 0);stroke:rgb(127, 119, 221);color:rgb(255, 255, 255);stroke-width:1.1px;stroke-linecap:butt;stroke-linejoin:miter;opacity:1;font-family:&quot;Anthropic Sans&quot;, -apple-system, &quot;system-ui&quot;, &quot;Segoe UI&quot;, sans-serif;font-size:16px;font-weight:400;text-anchor:start;dominant-baseline:auto"/>
<line x1="297" y1="183" x2="330" y2="183" stroke="#7F77DD" stroke-width="1.7" marker-start="url(#ar3)" marker-end="url(#ar3)" mask="url(#imagine-text-gaps-ix9zvx)" style="fill:rgb(0, 0, 0);stroke:rgb(127, 119, 221);color:rgb(255, 255, 255);stroke-width:1.7px;stroke-linecap:butt;stroke-linejoin:miter;opacity:1;font-family:&quot;Anthropic Sans&quot;, -apple-system, &quot;system-ui&quot;, &quot;Segoe UI&quot;, sans-serif;font-size:16px;font-weight:400;text-anchor:start;dominant-baseline:auto"/>
<text x="300" y="208" text-anchor="middle" style="fill:rgb(194, 192, 182);stroke:none;color:rgb(255, 255, 255);stroke-width:1px;stroke-linecap:butt;stroke-linejoin:miter;opacity:1;font-family:Caveat, cursive;font-size:21px;font-weight:400;text-anchor:middle;dominant-baseline:auto">D — distance from axis</text>
</svg>